<svg width="413" height="242" viewBox="0 0 413 242" fill="none" xmlns="http://www.w3.org/2000/svg">
<path d="M331.113 241.995C314.406 241.724 296.767 236.258 281.454 224.439C271.791 216.979 264.279 207.667 257.905 197.478C252.94 189.537 248.163 181.484 243.198 173.548C241.982 171.607 240.496 169.773 238.857 168.153C235.581 164.908 231.745 165.041 229.203 168.829C225.651 174.126 222.384 179.628 219.333 185.215C214.06 194.865 208.752 206.502 201.566 215.013C190.466 228.153 177.003 237.736 159.488 240.808C141.303 243.999 124.471 239.587 109.095 229.643C98.6186 222.873 90.6565 213.018 83.6037 203.101C77.2575 194.172 71.2372 184.373 64.8635 175.466C62.6242 172.333 59.848 169.537 57.1361 166.751C55.7641 165.34 53.9149 164.369 51.8087 165.415C49.7667 166.43 49.1426 168.206 49.0646 170.383C48.8214 177.438 51.2947 183.999 52.8228 190.734C54.3187 197.331 55.9388 200.872 57.1361 208.025C58.0355 213.397 56.7871 222.617 53.9742 227.188C48.0364 236.826 39.3179 241.971 27.6351 241.869C15.0988 241.758 2.79193 231.301 0.708665 219.35C-0.328379 213.394 -0.139925 205.842 0.708983 200.002C1.91122 191.767 3.43467 183.577 4.54972 175.328C5.63724 167.28 6.57792 159.201 7.21116 151.109C7.80769 143.502 8.08301 135.863 8.21608 128.234C8.48682 112.81 8.38586 97.3772 8.76673 81.9534C9.12464 67.42 10.9234 53.0601 18.1093 39.9822C29.3103 19.6086 46.4078 6.52625 69.9523 2.02599C92.4002 -2.26506 113.453 1.23366 132.776 13.4258C142.486 19.5552 149.19 28.2441 155.109 37.6809C160.914 46.9351 166.925 56.0736 173.001 65.1632C174.345 67.1751 176.148 69.0135 178.089 70.5047C181.329 72.9974 185.262 72.6057 188.23 69.8504C193.205 65.2255 196.141 59.2474 199.61 53.6254C204.837 45.159 209.563 36.3499 215.428 28.3153C225.757 14.1602 240.317 5.88081 257.653 2.02154C265.972 0.169801 274.411 -0.435575 282.868 0.312242C301.888 1.99928 318.747 8.45811 331.889 22.4485C338.487 29.4771 343.581 37.5607 348.559 45.6887C366.896 75.5926 385.186 105.523 403.449 135.471C408.006 142.945 411.227 150.949 412.434 159.584C413.329 165.985 413.108 172.39 412.154 178.823C410.814 187.872 408.075 196.427 403.624 204.466C394.671 220.642 380.611 230.898 363.105 237.041C353.68 240.348 343.92 242.022 331.113 242V241.995Z" fill="#6AE076"/>
</svg>
